<?xml version="1.0" encoding="UTF-8" standalone="no"?><!DOCTYPE svg PUBLIC "-//W3C//DTD SVG 1.1//EN" "http://www.w3.org/Graphics/SVG/1.1/DTD/svg11.dtd"><svg width="100%" height="100%" viewBox="0 0 14617 10338" version="1.1" xmlns="http://www.w3.org/2000/svg" xmlns:xlink="http://www.w3.org/1999/xlink" xml:space="preserve" xmlns:serif="http://www.serif.com/" style="fill-rule:evenodd;clip-rule:evenodd;stroke-linejoin:round;stroke-miterlimit:2;"><path d="M7308.08,456.904l5118.75,9420.83l-10237.5,-0.001l5118.75,-9420.83Zm0,836.379l4447.33,8185.17l-8894.71,0l4447.33,-8185.17l0.041,0Z" style="fill:#66ffb2;stroke:#fff;stroke-width:4.17px;"/><path d="M7308.08,4838.17l3039.58,1474.67l-3039.58,1474.67l-3039.58,-1474.67l3039.58,-1474.67Zm0,443.821c0,-0 1275.82,618.97 2124.79,1030.85l-2124.79,1030.85c0,-0 -1275.82,-618.971 -2124.79,-1030.85c848.971,-411.884 2124.79,-1030.85 2124.79,-1030.85Z" style="fill:#66ffb2;stroke:#fff;stroke-width:4.17px;"/><path d="M2301.3,1027.66l2023.33,2450.86" style="fill:none;stroke:#66ffb2;stroke-width:208.33px;stroke-linecap:round;stroke-miterlimit:1.5;"/><path d="M3643.36,6003.79l-3117.45,618.108" style="fill:none;stroke:#66ffb2;stroke-width:208.33px;stroke-linecap:round;stroke-miterlimit:1.5;"/><path d="M441,3454.94l2992.01,1071.67" style="fill:none;stroke:#66ffb2;stroke-width:208.33px;stroke-linecap:round;stroke-miterlimit:1.5;"/><path d="M12197.7,718.604l-2023.33,2450.86" style="fill:none;stroke:#66ffb2;stroke-width:208.33px;stroke-linecap:round;stroke-miterlimit:1.5;"/><path d="M10855.6,5694.71l3117.45,618.109" style="fill:none;stroke:#66ffb2;stroke-width:208.33px;stroke-linecap:round;stroke-miterlimit:1.5;"/><path d="M14058,3145.89l-2992.01,1071.67" style="fill:none;stroke:#66ffb2;stroke-width:208.33px;stroke-linecap:round;stroke-miterlimit:1.5;"/><path d="M7308.08,5327.08c592.342,0 1073.25,441.696 1073.25,985.746c0,544.046 -480.904,985.742 -1073.25,985.742c-592.341,-0 -1073.25,-441.696 -1073.25,-985.742c0,-544.05 480.905,-985.746 1073.25,-985.746Zm0,648.246c186.271,0 337.5,151.229 337.5,337.5c0,186.271 -151.229,337.5 -337.5,337.5c-186.271,0 -337.5,-151.229 -337.5,-337.5c0,-186.271 151.229,-337.5 337.5,-337.5Z" style="fill:#66ffb2;stroke:#66ffb2;stroke-width:4.17px;"/></svg>